<?xml version="1.0" encoding="utf-8"?>
<!-- Generator: Adobe Illustrator 18.0.0, SVG Export Plug-In . SVG Version: 6.00 Build 0)  -->
<!DOCTYPE svg PUBLIC "-//W3C//DTD SVG 1.1//EN" "http://www.w3.org/Graphics/SVG/1.1/DTD/svg11.dtd">
<svg version="1.1" id="Layer_1" xmlns="http://www.w3.org/2000/svg" xmlns:xlink="http://www.w3.org/1999/xlink" x="0px" y="0px"
	 viewBox="11.2 212 1202.1 424.4" enable-background="new 11.2 212 1202.1 424.4" xml:space="preserve">
<g>
	<path d="M51.6,540.3c0-0.3,0-1-0.1-1.9c-0.1-1-0.1-1.6-0.1-1.9c0-1.6,0.1-3,0.4-4.4c0.3-1.4,1.4-2.4,3.5-3c4.7,2.6,8.6,4.7,12,6.2
		c3.3,1.6,6.4,2.7,9.3,3.5c2.9,0.8,5.8,1.3,8.9,1.6c3,0.3,6.6,0.4,10.7,0.4c6.9,0,13.7-0.8,20.2-2.3c6.5-1.5,12.3-3.9,17.4-7.2
		c5.1-3.3,9.1-7.6,12.2-13c3.1-5.3,4.6-11.8,4.6-19.5c0-8.2-1.4-14.7-4.1-19.6c-2.7-4.9-6.3-8.8-10.8-11.7c-4.5-2.9-9.5-5-15.2-6.3
		c-5.7-1.3-11.5-2.3-17.5-3.1c-6-0.8-11.9-1.6-17.5-2.3c-5.7-0.8-10.8-2.1-15.2-4c-4.5-1.9-8.1-4.6-10.8-8.2
		c-2.7-3.5-4.1-8.4-4.1-14.6c0-4.9,0.7-9.8,2-14.8c1.3-5,3.2-9.9,5.6-14.5c2.4-4.7,5.3-9.1,8.6-13.2c3.4-4.1,7.1-7.7,11.2-10.8
		c4.1-3.1,8.5-5.5,13.2-7.2c4.7-1.8,9.6-2.6,14.7-2.6c5.1,0,10.3,1.4,15.8,4.2c5.4,2.8,10.4,6.4,14.8,10.9c4.4,4.5,8,9.4,10.9,14.8
		c2.8,5.4,4.3,10.8,4.3,16.1h-9.8c-1.7-3.4-3.6-7.1-5.9-11.2c-2.3-4-4.9-7.8-7.8-11.2c-2.9-3.4-6.3-6.3-9.9-8.5
		c-3.7-2.3-7.7-3.4-12.2-3.4c-5.8,0-11.4,1.2-16.7,3.7c-5.3,2.5-10,5.8-14.1,10c-4,4.2-7.3,9-9.7,14.4c-2.4,5.4-3.6,11-3.6,16.9
		c0,5.8,1.4,10.3,4.1,13.6c2.7,3.3,6.3,5.7,10.8,7.5c4.4,1.7,9.5,2.9,15.3,3.6c5.7,0.7,11.6,1.5,17.5,2.4c6,0.9,11.8,2.1,17.5,3.6
		s10.8,4,15.3,7.3c4.4,3.3,8,7.8,10.8,13.4c2.7,5.6,4.1,12.9,4.1,21.9c0,9.7-1.7,18.1-5.1,25.2c-3.4,7.1-8.1,12.9-14,17.5
		c-5.9,4.6-12.8,8-20.8,10.2c-8,2.2-16.6,3.3-25.8,3.3c-4.5,0-8.3-0.1-11.5-0.4c-3.2-0.3-6.4-0.8-9.5-1.7c-3.2-0.9-6.5-2.1-10.2-3.6
		C61.4,544.8,56.9,542.8,51.6,540.3z"/>
	<path d="M227.6,507.7c-0.1,0-0.4-0.1-0.9-0.2c-0.5-0.1-0.8-0.2-1-0.2c-2.3,0-4.7,0.8-7.1,2.5c-2.5,1.7-5.1,3.5-7.8,5.5
		c-2.7,2-5.5,3.9-8.5,5.5c-3,1.7-6.1,2.5-9.4,2.5c-3.4,0-6.5-0.6-9.3-1.9c-2.8-1.2-5.2-3-7.1-5.1c-1.9-2.2-3.4-4.7-4.5-7.6
		c-1.1-2.9-1.6-6-1.6-9.2c0-5.4,0.6-11.2,1.7-17.5c1.1-6.3,3.1-12.1,5.7-17.4c2.7-5.3,6.2-9.8,10.6-13.3c4.4-3.5,9.9-5.3,16.4-5.3
		c6,0,11.2,1.9,15.7,5.6c4.4,3.7,8.3,8.7,11.4,15c3.2,6.3,5.7,13.5,7.7,21.7c2,8.2,3.5,16.7,4.7,25.5c1.1,8.8,1.9,17.6,2.4,26.5
		c0.5,8.9,0.7,17.1,0.9,24.7c0.1,7.6,0.1,14.3,0,20.1c-0.1,5.8-0.2,10.1-0.2,12.9c-2.4,0-4.3-0.4-5.7-1.1c-1.5-0.7-2.6-1.8-3.5-3.1
		c-0.9-1.3-1.5-2.9-1.9-4.7c-0.4-1.8-0.8-3.7-1.1-5.7c-0.3-1.9-0.7-4.8-1.1-8.8c-0.4-4-0.9-8.5-1.4-13.4c-0.5-5-1.1-10.2-1.6-15.7
		c-0.6-5.5-1.1-10.7-1.6-15.7c-0.5-5-0.9-9.4-1.2-13.4C227.9,512.5,227.7,509.6,227.6,507.7z M181.9,496.5c0,4.1,1,7.7,3.1,10.7
		c2.1,3,5.5,4.5,10.4,4.5c3.7,0,7.3-1.3,10.7-4c3.4-2.6,6.4-5.8,9.1-9.6c2.6-3.8,4.8-7.7,6.4-11.9c1.6-4.1,2.4-7.7,2.4-10.7
		c0-6.8-1.4-11.4-4.3-13.8c-2.8-2.4-7.2-3.6-13-3.6c-4.7,0-8.6,1.2-11.7,3.7c-3.2,2.5-5.7,5.6-7.7,9.4c-2,3.8-3.4,7.9-4.2,12.4
		C182.3,488.2,181.9,492.5,181.9,496.5z"/>
	<path d="M257.2,480.1c0-2.6,0-5.8,0-9.6c0-3.8,0.2-7.8,0.5-12c0.4-4.1,1-8.3,1.9-12.4c0.9-4.1,2.2-7.9,4-11.2c1.8-3.3,4-6,6.8-8
		c2.8-2,6.3-3,10.6-3c0,4.3-0.5,8.5-1.4,12.5c-0.9,4-1.9,8-3,12c-1.1,4-2.1,8.1-3,12.3c-0.9,4.2-1.4,8.7-1.4,13.4c0,0.8,0,2.3,0,4.5
		c0,2.2,0,4.5,0.1,6.9c0.1,2.4,0.1,4.7,0.2,6.9c0.1,2.2,0.1,3.7,0.2,4.5c0.5,3.3,2,6.1,4.5,8.2c2.5,2.2,5.4,3.3,8.7,3.3
		c6.8,0,12.7-1.9,17.5-5.7c4.8-3.8,8.9-8.5,12.3-14.1c3.4-5.6,6.1-11.7,8.3-18.3c2.2-6.6,4.1-12.7,5.7-18.3
		c1.6-5.6,3.1-10.4,4.4-14.1c1.3-3.8,2.9-5.7,4.7-5.7c1.4,0,2.6,0.3,3.4,0.9c0.8,0.6,1.7,1.7,2.5,3.1c-0.4,6.1-0.5,11.6-0.2,16.4
		c0.3,4.8,0.7,9.3,1.4,13.4c0.7,4.1,1.4,7.9,2.3,11.6c0.8,3.6,1.6,7.3,2.4,10.9c0.8,3.7,1.4,7.5,2,11.5c0.6,4,0.9,8.4,0.9,13.3
		c-2.7,0-5.1-0.9-7.2-2.7c-2.1-1.8-4-4-5.7-6.5c-1.7-2.5-3.2-5.2-4.3-7.9c-1.2-2.7-2.1-5-2.7-6.8h-3.9c-3,5.9-6,10.8-8.9,14.8
		c-2.9,3.9-6.2,7.1-9.9,9.4c-3.7,2.3-7.8,4-12.5,4.9c-4.7,0.9-10.2,1.4-16.8,1.4c-4.3,0-8-1.4-11-4.3c-3-2.8-5.5-6.3-7.5-10.5
		c-2-4.1-3.4-8.5-4.3-13C257.7,487.4,257.2,483.5,257.2,480.1z"/>
	<path d="M409.1,403.8c3.7,0,7.2,0.8,10.3,2.3c3.2,1.6,5.8,3.6,8.1,6.3c2.2,2.6,4,5.7,5.3,9.2c1.3,3.5,1.9,7.2,1.9,11
		c0,3.8-1.1,7.2-3.3,10.2c-2.2,3-5.1,5.6-8.6,7.8c-3.5,2.3-7.4,4.2-11.7,5.8c-4.3,1.6-8.6,3-12.8,4.1c-4.2,1.1-8.2,2-11.8,2.7
		c-3.6,0.7-6.5,1.2-8.7,1.5c0,0.4,0,1.3-0.1,2.8c-0.1,1.5-0.1,2.4-0.1,3c0,3.6,1,6.6,3,9c2,2.4,4.6,4.3,7.8,5.7
		c3.2,1.5,6.9,2.5,10.9,3.2c4.1,0.7,8.2,1.2,12.3,1.5c4.1,0.3,8.1,0.5,12,0.7c3.8,0.2,7.1,0.4,9.9,0.7c0,0.1,0,0.4,0.1,0.9
		c0.1,0.5,0.1,0.8,0.1,1c0,1.3-0.6,2.5-1.9,3.5c-1.2,1-2.8,1.8-4.7,2.6c-1.9,0.7-4,1.3-6.3,1.9c-2.3,0.5-4.6,0.9-6.7,1.2
		c-2.1,0.3-4,0.4-5.7,0.5c-1.7,0.1-2.9,0.2-3.6,0.2c-5.8,0.3-11.1-0.8-15.9-3.2c-4.8-2.4-9-5.8-12.4-10.1c-3.5-4.3-6.2-9.3-8.2-15
		c-2-5.7-3.2-11.6-3.6-17.6c-0.4-6.1,0.2-12.1,1.7-18c1.5-6,4-11.4,7.6-16.3c3.6-4.9,8.3-9.1,14.1-12.5
		C393.8,406.9,400.8,404.8,409.1,403.8z M406.6,415.3c-4.2,0-8.2,1.1-11.8,3.3c-3.6,2.2-6.8,5-9.4,8.5c-2.6,3.5-4.7,7.3-6.2,11.6
		c-1.5,4.2-2.3,8.4-2.3,12.4c2.4,0,5.1-0.1,8.2-0.4c3.1-0.3,6.2-0.7,9.3-1.3c3.2-0.6,6.3-1.4,9.4-2.5c3.1-1,5.8-2.4,8.2-4
		c2.4-1.7,4.3-3.6,5.7-5.9c1.4-2.3,2.2-5,2.2-8.1c0-4.1-1.2-7.4-3.6-9.9C414,416.5,410.7,415.3,406.6,415.3z"/>
	<path d="M457.2,481c0-5.7,1-10.4,3-14.2c2-3.8,4.6-6.9,7.8-9.2c3.2-2.4,6.9-4.2,11.1-5.4c4.2-1.2,8.5-2,13-2.6
		c4.5-0.5,9-0.8,13.4-0.8c4.4,0,8.6,0,12.4,0c0-4.1-0.5-8.7-1.6-13.7c-1.1-5-2.8-9.7-5.1-14.1c-2.3-4.3-5.4-8-9.1-10.9
		c-3.7-3-8.2-4.4-13.5-4.4c-5.6,0-10.1,0.8-13.4,2.3c-3.4,1.6-6,3.5-8,5.8c-2,2.3-3.5,4.8-4.7,7.5c-1.2,2.7-2.5,5.2-3.8,7.5
		c-1.3,2.3-3,4.3-5,5.8c-2,1.6-4.8,2.3-8.5,2.3c0-7.6,1.1-14.1,3.3-19.5c2.2-5.4,5.4-9.9,9.5-13.4c4.1-3.5,9-6.1,14.8-7.7
		c5.7-1.6,12.1-2.4,19.2-2.4c5,0,9.3,0.8,12.9,2.5c3.6,1.7,6.8,3.9,9.5,6.6c2.7,2.7,5,5.9,6.8,9.5c1.9,3.6,3.5,7.4,5,11.3
		c1.4,3.9,2.8,7.9,4,12c1.2,4,2.5,7.9,3.8,11.5c1.7,4.7,3.9,9.1,6.6,13.2c2.7,4.1,5.4,8.3,8,12.5c2.6,4.2,4.8,8.5,6.8,13
		c1.9,4.5,2.9,9.3,2.9,14.4h-9l-11.5-18.9c-0.9,4-2.8,7.9-5.7,11.6c-2.9,3.7-6.3,7-10.2,9.8c-3.9,2.8-8.1,5-12.5,6.7
		c-4.4,1.7-8.6,2.5-12.7,2.5c-4.8,0-9.5-0.7-14.1-2c-4.7-1.3-8.9-3.3-12.6-6c-3.7-2.6-6.7-5.9-9-9.8
		C458.3,490.5,457.2,486.1,457.2,481z M469,479.3c0,4.1,0.8,7.6,2.5,10.3c1.7,2.7,3.9,5,6.6,6.7c2.7,1.7,5.9,2.9,9.4,3.6
		c3.5,0.7,7.1,1.1,10.9,1.1c3.7,0,7.1-0.7,10.1-2.3c3-1.5,5.5-3.5,7.6-6c2.1-2.5,3.7-5.4,4.8-8.7c1.1-3.3,1.7-6.8,1.7-10.4
		c0-2.8-0.8-5.1-2.4-7.1c-1.6-1.9-3.6-3.5-6-4.7c-2.4-1.2-4.9-2.1-7.6-2.6c-2.7-0.6-5.1-0.9-7.3-0.9c-2.9,0-6.1,0.4-9.6,1.3
		c-3.5,0.9-6.8,2.2-9.9,4c-3.1,1.8-5.6,3.9-7.7,6.5C470,472.9,469,475.9,469,479.3z"/>
	<path d="M589.7,527.3c0,0.1-0.2,0.3-0.6,0.7c-0.4,0.4-0.9,0.8-1.6,1.2c-0.6,0.4-1.3,0.8-1.9,1.2c-0.7,0.4-1.2,0.6-1.6,0.9
		c-0.1,0-0.4,0-0.9,0.1c-0.5,0.1-0.8,0.1-1,0.1c-0.2,0-0.5,0-1-0.1c-0.5-0.1-0.8-0.1-0.9-0.1c-2.3-13.8-4.4-28-6.3-42.6
		c-1.9-14.6-3.5-29.4-4.9-44.3c-1.3-14.9-2.4-29.7-3.1-44.4c-0.7-14.8-1.1-29.2-1.1-43.4c0-1.9,0.4-3.5,1.3-5
		c0.9-1.5,2.4-2.3,4.6-2.3c0.2,0,0.5,0,1,0.1c0.5,0.1,0.7,0.1,0.9,0.1c1.9,5.4,3.4,11.3,4.7,17.7c1.3,6.4,2.4,13,3.3,19.9
		c0.9,6.8,1.6,13.8,2,20.8c0.5,7,0.8,13.9,1,20.5c0.2,6.6,0.3,12.9,0.3,18.9c0,6,0,11.3,0,15.9h3.7l22.8-18.9h10.7l-27.5,32l47,51.2
		v7.6h-7.6L589.7,497V527.3z"/>
	<path d="M648.7,530.4c0.5-1.8,1.9-2.3,4.1-1.7c2.2,0.6,4.9,1.7,8,3.2c3.1,1.5,6.4,3.2,9.9,5c3.5,1.8,6.9,3,10.2,3.6
		c3.3,0.6,6.2,0.4,8.8-0.8c2.6-1.1,4.4-3.9,5.4-8.2V486c-4.7,5.2-9.1,8.2-13.4,9c-4.2,0.8-8.2,0.1-11.9-2.3c-3.7-2.3-7-5.8-9.9-10.5
		c-2.9-4.7-5.3-9.9-7.2-15.6c-1.9-5.7-3.3-11.7-4.1-17.8c-0.8-6.1-1-11.7-0.5-16.9c0.5-5.2,1.8-9.5,3.8-13c2-3.5,4.9-5.5,8.6-6
		c0,1.2,0,3.8,0.1,7.8c0.1,3.9,0.2,8.5,0.5,13.7c0.3,5.2,0.8,10.6,1.6,16.3c0.7,5.7,1.8,10.9,3.2,15.5c1.4,4.7,3.2,8.4,5.3,11.3
		c2.1,2.9,4.8,4.1,8,3.7c3.8,0.1,6.8-1.2,8.8-4c2-2.7,3.4-6.3,4.2-10.6c0.8-4.3,1.2-9.2,1.2-14.5c0-5.3-0.1-10.5-0.2-15.4
		c-0.1-5-0.1-9.4,0.2-13.4c0.2-4,0.9-6.9,2.2-8.6c0.6,0,1.4-0.1,2.3-0.2c0.9-0.2,1.8-0.3,2.6-0.4c0.8-0.1,1.6,0,2.4,0.2
		c0.8,0.3,1.3,0.8,1.6,1.5c1.1,5.5,1.9,12.1,2.3,19.8c0.4,7.7,0.5,15.6,0.5,23.8c-0.1,8.1-0.2,16.1-0.4,23.8
		c-0.2,7.8-0.3,14.4-0.3,19.9c0,1.1,0,3.1,0,5.7c0,2.7,0,5.5-0.1,8.5c-0.1,3-0.1,5.8-0.1,8.5c0,2.7,0,4.6,0,5.6
		c-0.8,3.2-1.8,6.1-3,8.5c-1.2,2.5-2.7,4.6-4.7,6.3c-1.9,1.7-4.3,3-7.1,3.9c-2.8,0.9-6.2,1.3-10.2,1.3c-0.6,0-1.9-0.3-4-0.9
		c-2-0.6-4.3-1.3-6.9-2.3c-2.6-1-5.3-2.1-8.2-3.4c-2.8-1.3-5.4-2.7-7.5-4.3c-2.2-1.6-3.9-3.3-5.1-5
		C648.5,533.9,648.1,532.1,648.7,530.4z"/>
	<path d="M719,382.7c0-2.2,0.3-3.7,0.9-4.6c0.6-0.9,1.5-1.4,2.6-1.7c1.1-0.3,2.3-0.4,3.6-0.3c1.3,0.1,2.8-0.1,4.3-0.5
		c1.6-0.4,3.8-1,6.7-1.8c2.9-0.8,6.1-1.7,9.6-2.6c3.5-1,7.2-2,11.1-3.2c3.9-1.1,7.5-2.2,10.9-3.2c3.4-1,6.4-1.9,9.1-2.6
		c2.6-0.8,4.5-1.4,5.7-1.8c1.4-0.4,3.5-1.3,6.2-2.7c2.7-1.4,5.6-2.8,8.9-4.2c3.2-1.4,6.5-2.7,9.8-3.8c3.3-1.1,6.4-1.7,9.2-1.7v5
		c0,0.1-0.7,0.5-2,1.3c-1.3,0.8-3.1,1.7-5.3,2.9c-2.2,1.1-4.6,2.4-7.4,3.8c-2.7,1.4-5.5,2.8-8.3,4.1c-2.8,1.3-5.5,2.6-8.2,3.8
		c-2.6,1.2-4.9,2.2-6.8,3c-0.5,0.2-1.6,0.6-3.3,1.2c-1.7,0.6-3.7,1.2-6.1,2c-2.3,0.8-4.8,1.6-7.5,2.5c-2.6,0.9-5.2,1.7-7.5,2.5
		c-2.4,0.8-4.5,1.5-6.2,2c-1.8,0.6-2.9,1-3.4,1.2c-2.1,0.7-4.2,1.7-6.4,2.9c-2.2,1.2-3.8,2.8-5,4.7c0,0.5,0,1.4-0.1,2.6
		c-0.1,1.2-0.1,2.5-0.1,3.9c0,1.4,0,2.7-0.1,4c-0.1,1.3-0.1,2.2-0.1,2.7c0,3.1,0.1,6.2,0.2,9.4c0.2,3.2,0.5,6.3,1,9.3
		c0.5,3.1,1.3,6.1,2.3,9c1,3,2.4,5.7,4.2,8.3c0.6,0,1.6,0,3,0.1c1.4,0.1,2.9,0.1,4.6,0.2c1.7,0.1,3.2,0.1,4.6,0.2
		c1.4,0.1,2.4,0.1,3,0.1c5.6,0,11-0.7,16.1-2c5.2-1.3,10.3-2.8,15.4-4.4c5.1-1.6,10.2-3.1,15.4-4.4c5.1-1.3,10.4-2,15.9-2
		c0,4-0.7,6.9-2.2,8.5c-1.5,1.6-4,2.9-7.8,4c-1.5,0.4-3.8,1-6.9,1.8c-3.2,0.8-6.7,1.7-10.7,2.7c-4,1-8.2,2.1-12.6,3.2
		c-4.4,1.1-8.6,2.1-12.6,3.1c-4,1-7.6,1.9-10.7,2.6c-3.2,0.8-5.5,1.3-7.1,1.6l-3.7,3.9v54.5c-1.1,0-2.1-0.3-3-0.9
		c-0.9-0.6-1.6-1.4-2.3-2.3s-1.1-1.9-1.6-3c-0.4-1.1-0.7-2-0.8-2.9l-18.9-117.4c0-0.2,0-0.8-0.1-1.9C719,384,719,383.2,719,382.7z"
		/>
	<path d="M828.2,480.1c0-2.6,0-5.8,0-9.6c0-3.8,0.2-7.8,0.5-12c0.4-4.1,1-8.3,1.9-12.4c0.9-4.1,2.2-7.9,4-11.2c1.8-3.3,4-6,6.8-8
		c2.8-2,6.3-3,10.6-3c0,4.3-0.5,8.5-1.4,12.5c-0.9,4-1.9,8-3,12c-1.1,4-2.1,8.1-3,12.3c-0.9,4.2-1.4,8.7-1.4,13.4c0,0.8,0,2.3,0,4.5
		c0,2.2,0,4.5,0.1,6.9c0.1,2.4,0.1,4.7,0.2,6.9c0.1,2.2,0.1,3.7,0.2,4.5c0.5,3.3,2,6.1,4.5,8.2c2.5,2.2,5.4,3.3,8.7,3.3
		c6.8,0,12.7-1.9,17.5-5.7c4.8-3.8,8.9-8.5,12.3-14.1c3.4-5.6,6.1-11.7,8.3-18.3c2.2-6.6,4.1-12.7,5.7-18.3
		c1.6-5.6,3.1-10.4,4.4-14.1c1.3-3.8,2.9-5.7,4.7-5.7c1.4,0,2.6,0.3,3.4,0.9c0.8,0.6,1.7,1.7,2.5,3.1c-0.4,6.1-0.5,11.6-0.2,16.4
		c0.3,4.8,0.7,9.3,1.4,13.4c0.7,4.1,1.4,7.9,2.3,11.6c0.8,3.6,1.6,7.3,2.4,10.9c0.8,3.7,1.4,7.5,2,11.5c0.6,4,0.9,8.4,0.9,13.3
		c-2.7,0-5.1-0.9-7.2-2.7c-2.1-1.8-4-4-5.7-6.5c-1.7-2.5-3.2-5.2-4.3-7.9c-1.2-2.7-2.1-5-2.7-6.8h-3.9c-3,5.9-6,10.8-8.9,14.8
		c-2.9,3.9-6.2,7.1-9.9,9.4c-3.7,2.3-7.8,4-12.5,4.9c-4.7,0.9-10.2,1.4-16.8,1.4c-4.3,0-8-1.4-11-4.3c-3-2.8-5.5-6.3-7.5-10.5
		c-2-4.1-3.4-8.5-4.3-13C828.6,487.4,828.2,483.5,828.2,480.1z"/>
	<path d="M938.6,503.4c0-0.2,0-0.6-0.1-1.3c-0.1-0.7-0.1-1.1-0.1-1.3c0-0.2,0-0.6,0.1-1.3c0.1-0.7,0.1-1.1,0.1-1.2
		c0.1-0.5,0.4-1.3,0.9-2.3c0.5-1,1.1-2.1,1.6-3.2c0.6-1.1,1.1-2.1,1.7-3c0.6-0.9,1-1.6,1.2-1.9c0.8-1,2.3-2.9,4.4-5.5
		c2.1-2.6,4.6-5.7,7.4-9.1c2.8-3.4,5.8-7.1,8.9-11c3.2-3.9,6.1-7.7,8.9-11.4c2.8-3.7,5.3-7.1,7.5-10.2c2.2-3.1,3.7-5.6,4.5-7.5
		c-4.2-0.4-8.6-0.5-13.1-0.4c-4.5,0.2-8.6,0.1-12.2-0.3c-3.6-0.4-6.6-1.4-8.9-3c-2.3-1.7-3.5-4.6-3.5-8.9h57.6v15.5L952.8,495
		c2.5,0.2,5.7,0.3,9.7,0.2c4-0.1,8.3,0,12.8,0.2c4.6,0.2,9.2,0.6,13.8,1.2c4.7,0.6,8.9,1.7,12.6,3.1c3.7,1.5,6.8,3.4,9.1,5.9
		c2.3,2.5,3.5,5.6,3.5,9.5c-13.1,0-25.9-1.1-38.3-3.4C963.7,509.5,951.2,506.7,938.6,503.4z"/>
	<path d="M1024.1,503.4c0-0.2,0-0.6-0.1-1.3c-0.1-0.7-0.1-1.1-0.1-1.3c0-0.2,0-0.6,0.1-1.3c0.1-0.7,0.1-1.1,0.1-1.2
		c0.1-0.5,0.4-1.3,0.9-2.3c0.5-1,1.1-2.1,1.6-3.2c0.6-1.1,1.1-2.1,1.7-3c0.6-0.9,1-1.6,1.2-1.9c0.8-1,2.3-2.9,4.4-5.5
		c2.1-2.6,4.6-5.7,7.4-9.1c2.8-3.4,5.8-7.1,8.9-11c3.2-3.9,6.1-7.7,8.9-11.4c2.8-3.7,5.3-7.1,7.5-10.2c2.2-3.1,3.7-5.6,4.5-7.5
		c-4.2-0.4-8.6-0.5-13.1-0.4c-4.5,0.2-8.6,0.1-12.2-0.3c-3.6-0.4-6.6-1.4-8.9-3c-2.3-1.7-3.5-4.6-3.5-8.9h57.6v15.5l-52.6,58.8
		c2.5,0.2,5.7,0.3,9.7,0.2c4-0.1,8.3,0,12.8,0.2c4.6,0.2,9.2,0.6,13.8,1.2c4.7,0.6,8.9,1.7,12.6,3.1c3.7,1.5,6.8,3.4,9.1,5.9
		c2.3,2.5,3.5,5.6,3.5,9.5c-13.1,0-25.9-1.1-38.3-3.4C1049.2,509.5,1036.7,506.7,1024.1,503.4z"/>
	<path d="M1105.6,530.4c0.5-1.8,1.9-2.3,4.1-1.7c2.2,0.6,4.9,1.7,8,3.2c3.1,1.5,6.4,3.2,9.9,5c3.5,1.8,6.9,3,10.2,3.6
		c3.3,0.6,6.2,0.4,8.8-0.8c2.6-1.1,4.4-3.9,5.4-8.2V486c-4.7,5.2-9.1,8.2-13.4,9c-4.2,0.8-8.2,0.1-11.9-2.3c-3.7-2.3-7-5.8-9.9-10.5
		c-2.9-4.7-5.3-9.9-7.2-15.6c-1.9-5.7-3.3-11.7-4.1-17.8c-0.8-6.1-1-11.7-0.5-16.9c0.5-5.2,1.8-9.5,3.8-13c2-3.5,4.9-5.5,8.6-6
		c0,1.2,0,3.8,0.1,7.8c0.1,3.9,0.2,8.5,0.5,13.7c0.3,5.2,0.8,10.6,1.6,16.3c0.7,5.7,1.8,10.9,3.2,15.5c1.4,4.7,3.2,8.4,5.3,11.3
		c2.1,2.9,4.8,4.1,8,3.7c3.8,0.1,6.8-1.2,8.8-4c2-2.7,3.4-6.3,4.2-10.6c0.8-4.3,1.2-9.2,1.2-14.5c0-5.3-0.1-10.5-0.2-15.4
		c-0.1-5-0.1-9.4,0.2-13.4c0.2-4,0.9-6.9,2.2-8.6c0.6,0,1.4-0.1,2.3-0.2c0.9-0.2,1.8-0.3,2.6-0.4c0.8-0.1,1.6,0,2.4,0.2
		c0.8,0.3,1.3,0.8,1.6,1.5c1.1,5.5,1.9,12.1,2.3,19.8c0.4,7.7,0.5,15.6,0.5,23.8c-0.1,8.1-0.2,16.1-0.4,23.8
		c-0.2,7.8-0.3,14.4-0.3,19.9c0,1.1,0,3.1,0,5.7c0,2.7,0,5.5-0.1,8.5c-0.1,3-0.1,5.8-0.1,8.5c0,2.7,0,4.6,0,5.6
		c-0.8,3.2-1.8,6.1-3,8.5c-1.2,2.5-2.7,4.6-4.7,6.3c-1.9,1.7-4.3,3-7.1,3.9c-2.8,0.9-6.2,1.3-10.2,1.3c-0.6,0-1.9-0.3-4-0.9
		c-2-0.6-4.3-1.3-6.9-2.3c-2.6-1-5.3-2.1-8.2-3.4c-2.8-1.3-5.4-2.7-7.5-4.3c-2.2-1.6-3.9-3.3-5.1-5
		C1105.5,533.9,1105.1,532.1,1105.6,530.4z"/>
</g>
<g>
	<path d="M1018.1,333.5c-0.1,0-0.3,0-0.4,0c-2.1,0.2-4.2,0.2-6.3,0.1c-2-0.1-4-0.3-6.1-0.4c-1.5-0.1-3-0.1-4.5,0
		c-1.8,0.1-3.5,0.3-5.3,0.8c-1.3,0.3-2.5,0.8-3.7,1.3c-2.1,0.9-4,1.9-6,2.9c-1.6,0.8-3.3,1.6-5,2.3c-1.2,0.5-2.3,0.9-3.6,1.2
		c-1.5,0.4-3,0.6-4.6,0.5c-2.3-0.1-4.4-0.8-6.4-2c-2.9-1.7-5-4.1-6.4-7.2c-0.6-1.4-1-2.9-1.2-4.4c-0.4-2.9-0.2-5.8,0.6-8.7
		c0.8-2.9,2-5.6,3.6-8.1c0.6-1,1.3-1.9,2-2.8c1.4-1.9,2.7-3.9,3.8-6.1c1.2-2.3,2.2-4.6,3.2-6.9c0.9-2,1.7-4,2.8-5.9
		c0.8-1.6,1.7-3.1,2.8-4.5c1.1-1.5,2.5-2.8,4.1-3.8c1.3-0.8,2.6-1.3,4-1.6c2.2-0.5,4.3-0.7,6.5-0.4c2.4,0.3,4.6,1.1,6.6,2.3
		c1.6,1,3.1,2.3,4.5,3.6c1.4,1.4,2.9,2.9,4.3,4.3c1.5,1.5,3,3,4.7,4.4c1.8,1.6,3.8,3,5.9,4.2c2.7,1.6,5.2,3.4,7.4,5.7
		c1.8,1.9,3.3,3.9,4.4,6.2c0.8,1.6,1.3,3.3,1.6,5.1c0.6,3.8,0,7.4-2.1,10.6c-1.6,2.6-3.8,4.6-6.6,5.9c-0.7,0.4-1.5,0.6-2.2,0.9
		c-0.1,0-0.1,0.1-0.2,0.1C1019.5,333.2,1018.8,333.4,1018.1,333.5z"/>
	<path d="M998.8,239.1c0.2,0,0.4,0,0.6,0c2.1-0.1,4,0.4,5.8,1.5c1.8,1.1,3.3,2.6,4.4,4.4c0.9,1.4,1.6,3,2.1,4.6
		c1.3,4.2,1.3,8.4,0.3,12.6c-0.6,2.3-1.5,4.4-2.8,6.3c-1.2,1.7-2.6,3.2-4.3,4.3c-1.2,0.8-2.5,1.3-3.9,1.5c-3,0.4-5.7-0.4-8-2.3
		c-1.6-1.3-2.8-2.9-3.8-4.7c-0.6-1.2-1.1-2.4-1.5-3.7c-1.4-5-1.2-9.9,0.6-14.8c0.9-2.3,2.1-4.3,3.8-6.1c1.2-1.2,2.6-2.2,4.2-2.9
		c0.3-0.1,0.6-0.2,1-0.3c0.1,0,0.1-0.1,0.2-0.1C997.8,239.3,998.3,239.2,998.8,239.1z"/>
	<path d="M1039.2,270.9c0,0.1,0,0.1,0,0.2c0.2,1.1,0.2,2.1,0.1,3.2c-0.2,3.3-1.2,6.3-2.9,9.1c-1.3,2.1-3,3.9-5.1,5.2
		c-1.3,0.8-2.8,1.4-4.3,1.6c-3.1,0.4-5.8-0.4-8-2.5c-1.2-1.1-2.1-2.5-2.8-4c-0.5-1.2-0.8-2.4-1-3.6c-0.3-2.1-0.3-4.2,0.1-6.3
		c0.5-2.4,1.3-4.7,2.6-6.9c1.3-2.2,3.1-4,5.2-5.3c1.2-0.7,2.4-1.2,3.8-1.5c2.5-0.5,4.9,0,7.1,1.4c1.3,0.8,2.3,1.9,3.1,3.2
		c0.6,1,1.1,2,1.4,3.1c0.1,0.2,0.1,0.4,0.2,0.6C1038.9,269.3,1039.1,270.1,1039.2,270.9z"/>
	<path d="M935.8,289.9c0-0.2,0-0.4,0-0.6c-0.2-2-0.1-4,0.6-5.9c0.6-1.8,1.6-3.3,3-4.5c1.2-1,2.6-1.7,4.2-2c2-0.4,3.9-0.2,5.7,0.5
		c2.2,0.7,4.2,1.9,5.9,3.5c2.2,2,3.8,4.3,4.9,7c0.4,1,0.7,2,1,3.1c0.4,2,0.5,4,0.2,6c-0.3,1.5-0.8,2.8-1.6,4.1
		c-1.1,1.6-2.5,2.8-4.3,3.5c-1.9,0.7-3.8,0.8-5.8,0.5c-1.8-0.3-3.5-1.1-5.1-2.1c-1.8-1.1-3.3-2.6-4.6-4.2c-1.4-1.7-2.4-3.6-3.1-5.7
		c-0.1-0.4-0.3-0.8-0.4-1.3c0,0,0-0.1-0.1-0.1C936.1,291.2,936,290.5,935.8,289.9z"/>
	<path d="M953.1,264.1c-0.4-2.4-0.5-4.8-0.1-7.3c0.3-1.8,0.9-3.6,1.9-5.1c1.1-1.7,2.4-3.1,4.3-4c1.9-0.9,4-1.2,6.1-0.8
		c1.8,0.3,3.4,1,4.9,2c2.6,1.7,4.6,3.9,6.1,6.5c0.9,1.5,1.6,3.1,2.2,4.8c0.2,0.8,0.5,1.6,0.6,2.3c0.6,2.7,0.6,5.5,0,8.2
		c-0.4,1.7-1,3.2-2,4.7c-1.2,1.7-2.7,3-4.7,3.8c-1.7,0.7-3.5,0.8-5.3,0.5c-1.7-0.3-3.4-1-4.8-1.9c-2.6-1.7-4.7-3.9-6.2-6.5
		c-0.9-1.5-1.7-3.2-2.2-4.9C953.5,265.6,953.3,264.9,953.1,264.1z"/>
</g>
<g>
	<path d="M1090.2,367.4c-0.1-0.1-0.2-0.2-0.3-0.3c-1.6-1.4-2.9-3-4.2-4.6c-1.3-1.6-2.5-3.2-3.8-4.8c-0.9-1.2-2-2.3-3-3.4
		c-1.3-1.2-2.6-2.4-4.1-3.4c-1.1-0.7-2.2-1.3-3.4-1.9c-2-0.9-4.1-1.7-6.2-2.5c-1.7-0.7-3.4-1.3-5-2.1c-1.1-0.5-2.2-1.2-3.3-1.8
		c-1.3-0.9-2.4-1.9-3.4-3c-1.5-1.8-2.4-3.8-2.8-6.1c-0.7-3.3-0.3-6.5,1.1-9.6c0.6-1.4,1.5-2.7,2.4-3.9c1.9-2.3,4.2-4.1,6.8-5.4
		c2.6-1.4,5.4-2.3,8.4-2.8c1.1-0.2,2.3-0.3,3.4-0.4c2.4-0.2,4.7-0.7,7-1.3c2.5-0.7,4.9-1.5,7.3-2.3c2.1-0.7,4.1-1.4,6.2-1.9
		c1.7-0.4,3.4-0.8,5.2-0.9c1.9-0.2,3.7,0,5.6,0.5c1.4,0.4,2.7,1,3.9,1.9c1.8,1.3,3.4,2.8,4.7,4.6c1.4,1.9,2.3,4.1,2.7,6.5
		c0.3,1.9,0.4,3.8,0.3,5.7c-0.1,2-0.2,4.1-0.3,6.1c-0.1,2.1-0.2,4.3-0.2,6.4c0.1,2.4,0.4,4.8,0.9,7.2c0.7,3.1,0.9,6.2,0.7,9.3
		c-0.2,2.6-0.7,5-1.7,7.4c-0.7,1.7-1.5,3.2-2.7,4.6c-2.4,3-5.5,4.9-9.3,5.6c-3,0.5-6,0.3-8.8-0.9c-0.7-0.3-1.4-0.7-2.1-1.1
		c-0.1,0-0.1-0.1-0.2-0.1C1091.4,368.2,1090.8,367.8,1090.2,367.4z"/>
	<path d="M1147.3,289.7c0.1,0.1,0.3,0.3,0.4,0.4c1.5,1.5,2.4,3.2,2.8,5.3c0.4,2.1,0.2,4.2-0.3,6.3c-0.4,1.6-1.1,3.2-2,4.6
		c-2.2,3.7-5.3,6.6-9.2,8.6c-2.1,1.1-4.2,1.8-6.5,2.2c-2,0.3-4.1,0.2-6.1-0.4c-1.4-0.4-2.6-1-3.7-1.9c-2.3-1.9-3.5-4.5-3.7-7.5
		c-0.1-2,0.2-4,0.9-5.9c0.4-1.2,1-2.4,1.7-3.6c2.8-4.4,6.6-7.6,11.4-9.5c2.3-0.9,4.6-1.3,7.1-1.2c1.7,0.1,3.4,0.4,4.9,1.2
		c0.3,0.1,0.6,0.3,0.9,0.5c0.1,0,0.1,0.1,0.2,0.1C1146.6,289.1,1146.9,289.4,1147.3,289.7z"/>
	<path d="M1150.8,341.1c0,0-0.1,0.1-0.1,0.1c-0.7,0.8-1.5,1.6-2.3,2.2c-2.6,2-5.5,3.4-8.7,4c-2.5,0.5-4.9,0.4-7.3-0.3
		c-1.5-0.4-2.9-1.1-4.1-2.1c-2.4-2-3.6-4.5-3.5-7.6c0-1.7,0.5-3.2,1.2-4.8c0.5-1.2,1.2-2.2,2-3.2c1.3-1.6,2.9-3,4.7-4.1
		c2.1-1.3,4.4-2.2,6.9-2.7c2.5-0.5,5-0.4,7.5,0.3c1.3,0.4,2.5,1,3.6,1.8c2.1,1.6,3.3,3.6,3.7,6.2c0.2,1.5,0.1,3-0.3,4.5
		c-0.3,1.1-0.8,2.1-1.3,3.1c-0.1,0.2-0.2,0.3-0.3,0.5C1151.8,339.7,1151.3,340.4,1150.8,341.1z"/>
	<path d="M1067.4,277.1c0.1-0.1,0.3-0.2,0.4-0.4c1.3-1.5,2.9-2.7,4.8-3.6c1.7-0.7,3.5-1.1,5.3-0.8c1.6,0.2,3,0.8,4.3,1.8
		c1.6,1.2,2.7,2.8,3.5,4.6c1,2.1,1.4,4.4,1.4,6.7c0,2.9-0.7,5.7-1.9,8.3c-0.5,1-1,1.9-1.6,2.8c-1.2,1.7-2.6,3.1-4.4,4.2
		c-1.3,0.8-2.6,1.3-4.1,1.6c-1.9,0.3-3.8,0-5.5-0.8c-1.8-0.9-3.2-2.3-4.2-4c-1-1.6-1.6-3.3-1.9-5.2c-0.4-2.1-0.3-4.2,0-6.3
		c0.4-2.2,1.1-4.2,2.1-6.2c0.2-0.4,0.4-0.8,0.7-1.2c0,0,0-0.1,0-0.1C1066.6,278.1,1067,277.6,1067.4,277.1z"/>
	<path d="M1098.1,272.6c1.5-1.9,3.2-3.6,5.3-5c1.6-1,3.2-1.7,5.1-2.1c2-0.4,3.9-0.3,5.8,0.5c2,0.8,3.5,2.2,4.6,4
		c1,1.5,1.5,3.2,1.8,5c0.5,3,0.2,6-0.7,8.9c-0.5,1.7-1.2,3.3-2.1,4.8c-0.4,0.7-0.9,1.4-1.3,2c-1.7,2.3-3.7,4.1-6.1,5.5
		c-1.5,0.8-3.1,1.4-4.8,1.7c-2.1,0.3-4,0-5.9-0.9c-1.6-0.8-2.9-2-3.9-3.6c-1-1.5-1.5-3.1-1.8-4.9c-0.5-3.1-0.2-6.1,0.7-9
		c0.5-1.7,1.2-3.3,2.1-4.9C1097.3,273.9,1097.7,273.3,1098.1,272.6z"/>
</g>
</svg>
